<svg width="264" height="308" viewBox="0 0 264 308" fill="none" xmlns="http://www.w3.org/2000/svg">
<g clip-path="url(#clip0_72_30)">
<path d="M169.33 11.028C171.353 12.8234 173.281 14.7044 175.178 16.6322C175.602 17.057 176.027 17.4818 176.464 17.9195C186.217 28.3426 191.458 43.6748 196.766 56.6722C196.919 57.0423 197.071 57.4124 197.228 57.7938C198.523 61.0649 199.325 64.3636 200.06 67.7987C200.188 68.3836 200.317 68.9685 200.449 69.5712C200.857 71.4308 201.26 73.2914 201.662 75.1522C204.564 89.1397 204.564 89.1397 208.447 102.872C214.461 122.084 214.196 140.564 204.91 158.714C204.031 160.385 203.135 162.041 202.207 163.685C198.645 170.049 196.389 177.156 198.419 184.461C198.94 185.746 198.94 185.746 199.85 187.264C200.334 186.972 200.817 186.68 201.315 186.379C205.801 184.448 210.686 184.233 215.271 186.032C217.199 187.341 217.199 187.341 218.355 189.112C218.45 192.103 218.114 193.827 216.235 196.158C214.407 197.983 213.996 198.296 211.454 198.545C206.511 198.14 203.688 195.022 200.467 191.576C200.06 191.17 199.653 190.763 199.234 190.344C195.091 197.092 192.175 203.688 189.981 211.288C189.832 211.806 189.682 212.324 189.528 212.858C188.621 216.023 187.748 219.196 186.897 222.376C187.25 222.542 187.603 222.708 187.967 222.879C189.401 223.627 190.665 224.485 191.986 225.418C195.953 228.059 199.477 229.099 204.13 229.884C209.301 230.854 213.662 232.93 218.321 235.309C219.623 235.945 220.944 236.497 222.283 237.052C225.615 238.513 228.486 240.556 231.463 242.627C237.426 246.664 243.16 249.676 249.941 252.072C250.981 252.44 250.981 252.44 252.042 252.816C253.439 253.305 254.838 253.786 256.241 254.257C257.211 254.592 257.211 254.592 258.2 254.933C258.782 255.129 259.365 255.324 259.964 255.526C261.705 256.336 262.73 257.297 264 258.72C263.723 260.147 263.723 260.147 262.766 261.8C261.043 262.671 259.189 263.103 257.331 263.61C251.887 265.264 246.718 267.352 241.586 269.788C240.81 270.156 240.031 270.52 239.251 270.878C233.986 273.307 230.258 276.007 226.374 280.28C208.853 295.94 192.524 299.49 169.626 298.76C165.808 298.537 162.213 297.898 158.523 296.912C157.775 296.723 157.775 296.723 157.012 296.53C148.082 294.179 139.953 290.322 131.73 286.209C130.994 285.842 130.994 285.842 130.243 285.467C120.486 280.566 110.937 275.415 102.392 268.576C101.995 268.259 101.598 267.941 101.189 267.614C96.802 264.101 92.4633 260.541 88.2056 256.872C90.3453 256.872 90.5857 257.133 92.1402 258.477C92.5497 258.825 92.9591 259.173 93.3809 259.531C93.8231 259.911 94.2652 260.292 94.7208 260.684C105.044 269.316 115.663 276.044 127.682 282.128C128.073 282.327 128.465 282.526 128.868 282.732C143.217 290.111 143.217 290.111 158.523 295.064C158.956 295.165 159.389 295.266 159.835 295.37C178.11 299.446 196.844 298.375 212.953 288.376C215.544 286.695 217.896 284.788 220.206 282.744C220.724 282.286 221.242 281.828 221.777 281.356C222.775 280.462 223.77 279.565 224.759 278.661C225.292 278.179 225.825 277.697 226.374 277.2C226.716 276.87 227.059 276.541 227.412 276.201C230.734 273.11 234.293 271.124 238.363 269.154C239.013 268.834 239.663 268.515 240.333 268.185C245.636 265.625 250.986 263.563 256.598 261.8C257.742 261.417 258.886 261.032 260.029 260.645C260.729 260.416 261.429 260.188 262.149 259.952C262.149 259.342 262.149 258.732 262.149 258.104C261.79 258.002 261.43 257.899 261.059 257.793C256.845 256.565 252.731 255.131 248.618 253.6C247.997 253.375 247.375 253.149 246.735 252.917C240.677 250.665 235.188 247.798 230.036 243.898C227.255 241.864 224.543 240.045 221.398 238.606C219.891 237.915 218.424 237.185 216.95 236.426C212.284 234.066 207.952 231.981 202.742 231.231C196.445 230.301 191.162 227.723 186.28 223.608C186.198 224.415 186.116 225.222 186.031 226.053C185.718 228.858 185.256 231.611 184.724 234.381C184.538 235.367 184.353 236.354 184.168 237.34C183.972 238.371 183.777 239.402 183.582 240.433C181.591 250.997 181.591 250.997 180.043 261.634C179.899 262.722 179.704 263.803 179.495 264.88C179.088 265.083 178.681 265.287 178.262 265.496C179.819 253.865 181.52 242.306 183.887 230.809C184.038 230.067 184.19 229.325 184.346 228.56C184.481 227.914 184.616 227.267 184.756 226.601C185.031 224.935 185.161 223.444 185.047 221.76C184.266 220.635 184.266 220.635 183.158 219.643C174.889 210.75 172.335 197.147 172.71 185.416C172.914 185.416 173.117 185.416 173.327 185.416C173.387 185.955 173.387 185.955 173.448 186.504C174.864 198.856 176.861 210.493 185.664 219.912C186.626 217.12 187.544 214.326 188.331 211.478C190.325 204.308 192.588 196.774 197.229 190.804C198.19 189.702 198.19 189.702 197.884 187.919C197.448 186.078 197.448 186.078 196.749 184.603C194.647 178.82 196.274 171.805 198.617 166.32C199.951 163.618 201.402 160.98 202.843 158.334C212.127 141.022 212.746 123.536 207.202 104.946C206.824 103.843 206.436 102.742 206.033 101.647C203.167 93.2181 201.657 84.2273 199.806 75.5334C197.992 67.0321 196.222 58.8971 192.156 51.1369C190.878 48.6154 189.826 46.0211 188.76 43.4047C182.304 27.5593 173.829 13.9494 157.907 6.16017C150.073 3.01763 142.337 1.60923 133.889 1.65567C133.223 1.65869 132.557 1.66172 131.871 1.66484C115.704 1.89597 93.1974 5.42698 80.941 16.9546C70.6995 28.3509 66.0686 44.6359 62.5833 59.1506C61.7616 62.5593 60.8443 65.9321 59.8703 69.3002C59.6463 70.0785 59.6463 70.0785 59.4178 70.8727C58.5786 73.7677 57.7131 76.6538 56.832 79.5364C56.6383 80.1784 56.4446 80.8204 56.2451 81.4818C55.8759 82.7037 55.5011 83.9238 55.119 85.1417C52.4722 93.9316 52.1616 102.986 51.7951 112.091C51.3727 122.285 49.9779 131.067 42.7848 138.778C33.8177 149.051 27.8521 161.426 22.2056 173.712C21.7985 173.509 21.3914 173.306 20.9719 173.096C22.1918 170.508 23.4195 167.924 24.6539 165.344C25.071 164.469 25.4861 163.593 25.899 162.716C29.4998 155.077 33.8012 148.245 38.9369 141.526C39.2366 141.131 39.5364 140.735 39.8452 140.328C42.3361 137.042 42.3361 137.042 43.5618 135.461C49.1901 128.132 50.0495 120.071 50.2324 111.034C50.7192 97.4513 52.9754 85.5073 57.0286 72.5629C58.837 66.7866 60.4974 61.0487 61.7979 55.1322C64.807 41.7574 69.9633 27.225 78.9532 16.6322C79.3198 16.1986 79.6863 15.765 80.064 15.3184C99.4258 -4.44387 148.704 -6.49479 169.33 11.028ZM200.467 188.496C202.337 192.121 205.272 195.537 209.103 197.12C211.235 197.531 211.235 197.531 213.421 197.12C216.187 194.658 216.896 192.873 217.121 189.112C211.323 185.123 206.524 184.912 200.467 188.496Z" fill="#070E46"/>
<path d="M135.701 27.1043C134.783 27.0828 134.783 27.0828 133.846 27.0609C123.949 26.8981 114.87 27.3426 107.327 34.4963C99.0198 44.5485 96.0813 55.857 96.164 68.6891C96.1649 69.2136 96.1658 69.7381 96.1667 70.2785C96.1701 71.9288 96.1778 73.579 96.1857 75.2293C96.1888 76.3586 96.1916 77.4879 96.1942 78.6173C96.2009 81.3636 96.2115 84.1099 96.2243 86.8563C96.8543 86.7249 96.8543 86.7249 97.4971 86.5908C101.389 85.8245 105.061 85.4468 109.023 85.5088C109.516 85.5092 110.008 85.5096 110.515 85.51C113.417 85.5314 116.184 85.7625 119.047 86.2403C118.843 85.2239 118.64 84.2075 118.43 83.1603C115.33 82.5942 112.82 82.6099 109.717 83.1218C105.388 83.764 101.21 83.9087 96.8411 83.7763C96.8411 83.573 96.8411 83.3697 96.8411 83.1603C99.6022 82.7251 102.366 82.3061 105.13 81.8898C105.907 81.7671 106.684 81.6444 107.485 81.518C111.7 80.8915 115.472 80.4011 119.664 81.3123C121.247 83.6841 120.794 84.7531 120.28 87.4723C119.686 87.469 119.092 87.4658 118.48 87.4625C116.261 87.4513 114.041 87.4442 111.821 87.4384C110.863 87.4353 109.905 87.4312 108.948 87.4258C107.565 87.4183 106.182 87.4148 104.8 87.4121C104.377 87.4089 103.954 87.4058 103.518 87.4025C100.811 87.4022 98.2697 87.6515 95.6075 88.0883C95.652 88.5075 95.6965 88.9268 95.7424 89.3588C96.4832 97.0857 96.7664 104.34 94.8798 111.91C94.3529 113.91 94.3529 113.91 94.0991 115.779C91.9833 128.591 82.5621 140.65 75.7839 151.538C74.8244 153.081 73.8737 154.628 72.9272 156.178C65.1345 168.811 54.2979 175.579 41.5954 182.674C40.1923 183.509 38.9111 184.411 37.6262 185.416C37.9609 185.647 38.2956 185.878 38.6405 186.116C41.5616 188.203 43.5337 189.882 44.8353 193.309C46.1578 202.554 40.9893 209.767 35.66 216.871C35.3726 217.252 35.0852 217.632 34.789 218.025C32.463 221.14 30.4069 224.378 28.3738 227.689C25.5096 232.32 22.369 236.415 18.7607 240.481C10.5917 249.762 1.39446 261.509 1.68661 274.565C2.55154 281.971 8.12876 291.467 13.7918 296.308C14.5217 296.855 14.5217 296.855 15.2663 297.413C15.7593 297.785 16.2523 298.158 16.7602 298.541C17.1323 298.817 17.5044 299.092 17.8878 299.376C17.5905 298.678 17.2931 297.979 16.9867 297.259C16.593 296.322 16.1994 295.385 15.8061 294.448C15.5127 293.761 15.5127 293.761 15.2133 293.06C11.8909 285.111 11.1448 277.477 14.0303 269.214C17.1632 261.641 21.8443 257.205 29.0677 253.523C29.6866 253.206 29.6866 253.206 30.318 252.884C32.9826 251.596 35.2942 250.984 38.243 250.712C36.6697 252.349 35.0147 253.808 33.2698 255.255C31.2137 257.056 29.8255 258.516 28.9906 261.184C28.742 263.351 28.742 263.351 29.6075 265.496C31.0907 267.142 32.7935 268.454 34.542 269.808C39.6076 274 43.7071 278.593 47.4568 283.976C54.9906 294.695 65.9241 302.02 78.3364 306.152C79.1965 306.193 80.0584 306.205 80.9194 306.191C82.0834 306.172 82.0834 306.172 83.271 306.152C82.8082 306.017 82.3455 305.882 81.8687 305.743C71.8916 302.656 66.4915 297.742 61.2798 288.779C57.7106 281.382 59.0964 269.663 61.5208 262.077C61.906 261.025 61.906 261.025 62.2991 259.952C62.5023 259.373 62.5023 259.373 62.7096 258.782C64.6091 253.405 67.0166 248.61 70.3177 243.936C70.7559 243.302 71.194 242.667 71.6454 242.014C74.1256 238.498 74.1256 238.498 75.2523 237.16C75.6594 237.16 76.0665 237.16 76.486 237.16C76.1104 239.329 75.5354 241.224 74.6813 243.25C72.341 248.926 70.0579 254.519 68.7371 260.53C68.593 261.178 68.593 261.178 68.446 261.839C67.8603 264.752 67.7745 267.471 67.8505 270.424C69.4316 268.908 70.8697 267.319 72.2839 265.65C76.5892 260.752 81.1188 257.388 86.8274 254.322C91.178 251.824 94.3978 248.589 96.0942 243.792C97.4631 238.038 97.558 232.07 97.535 226.188C97.5374 225.566 97.5398 224.943 97.5423 224.302C97.5415 223.701 97.5407 223.099 97.5398 222.48C97.5388 221.672 97.5388 221.672 97.5377 220.849C97.4555 219.248 97.1617 217.785 96.8411 216.216C96.7541 215.139 96.6903 214.06 96.6459 212.98C96.6202 212.358 96.5945 211.736 96.5679 211.096C96.5436 210.435 96.5192 209.775 96.4941 209.094C96.4666 208.408 96.4391 207.722 96.4107 207.016C96.2731 203.304 96.2145 199.609 96.277 195.896C96.4138 187.437 95.6604 179.352 92.0198 171.604C91.2257 169.877 90.6312 168.131 90.0561 166.32C95.6285 171.554 97.1684 181.355 97.5265 188.665C97.5669 190.189 97.5911 191.712 97.6097 193.237C97.63 194.388 97.6505 195.54 97.6712 196.692C97.7002 198.48 97.7277 200.268 97.752 202.055C97.841 208.295 98.0443 214.32 99.0543 220.484C99.4606 223.51 99.3409 226.46 99.1542 229.499C99.121 230.108 99.0879 230.718 99.0537 231.346C98.5514 239.787 98.0636 247.016 91.6583 253.138C89.3493 254.969 86.8407 256.377 84.2883 257.84C78.8376 261.014 72.5856 265.895 69.7009 271.656C68.6832 271.656 67.6654 271.656 66.6168 271.656C63.8909 266.212 68.0016 256.153 69.7009 250.712C70.4444 248.618 71.2382 246.571 72.1682 244.552C64.3622 255.854 59.6737 269.027 61.528 282.821C62.0428 285.56 62.6231 287.771 64.1495 290.136C64.4485 290.61 64.7475 291.083 65.0555 291.57C71.4038 301.195 79.9033 303.709 90.6729 306.152C90.6729 306.762 90.6729 307.372 90.6729 308C82.5011 308.448 76.4345 308.061 69.0841 304.304C68.4846 304.016 67.8851 303.728 67.2674 303.431C57.8053 298.625 50.2149 291.521 44.224 282.871C40.3656 277.332 36.118 272.806 30.4387 269.101C28.8042 267.813 28.0037 266.768 27.1402 264.88C26.7995 260.977 27.7794 258.017 30.2243 255.024C21.869 259.823 17.2398 264.491 14.6182 273.947C12.6867 282.999 16.2891 290.93 20.2095 298.916C21.5888 301.728 21.5888 301.728 21.5888 303.072C12.1727 299.615 6.15442 291.437 1.85045 282.744C-0.926327 275.715 -0.485906 268.823 2.33295 261.836C6.06143 253.408 11.2688 246.278 17.3481 239.411C22.3262 233.75 26.4098 227.59 30.3302 221.168C32.1483 218.221 34.1402 215.465 36.2383 212.713C39.8629 207.894 43.9782 202.248 43.4546 195.927C42.7259 192.585 41.5126 190.017 38.5899 188.111C36.5455 187.073 36.5455 187.073 34.995 187.649C32.8266 188.738 30.8306 190.025 28.7979 191.345C14.487 200.419 14.487 200.419 8.01868 200.2C7.40802 199.794 6.79737 199.387 6.16821 198.968C6.55088 194.956 8.24326 192.404 11.1413 189.69C15.1498 186.397 20.4652 183.893 25.7065 184.341C33.812 184.838 38.2381 183.934 44.5178 178.867C46.458 177.416 48.595 176.342 50.7336 175.214C54.9907 172.899 58.7283 170.232 62.2991 166.936C62.6322 166.634 62.9653 166.331 63.3085 166.019C66.2922 163.198 68.436 160.099 70.5876 156.618C70.9523 156.036 71.317 155.455 71.6928 154.855C75.923 148.066 80.0306 141.204 84.0454 134.285C85.1831 132.335 86.3451 130.4 87.5245 128.474C94.3258 116.05 94.8683 102.953 94.528 89.0893C94.4697 86.0046 94.4227 82.9198 94.3835 79.8348C94.3735 79.086 94.3635 78.3372 94.3532 77.5657C94.2258 61.3048 95.213 45.0102 107.105 32.7036C113.272 27.2484 128.041 22.0044 135.701 27.1043ZM8.94391 193.809C7.95848 195.367 7.55473 196.52 7.40186 198.352C7.60541 198.556 7.80896 198.759 8.01868 198.968C11.752 198.748 14.4569 197.864 17.7336 196.119C18.1581 195.899 18.5825 195.68 19.0198 195.453C20.2934 194.788 21.559 194.109 22.8224 193.424C23.1928 193.225 23.5633 193.025 23.9449 192.82C27.4661 190.906 30.6963 189.107 33.3084 186.032C24.9822 181.875 14.5573 187.923 8.94391 193.809Z" fill="#070E46"/>
<path d="M143.72 25.872C150.816 25.4664 156.206 26.1693 161.762 30.8385C168.95 37.8134 173.043 47.9533 176.604 57.1533C177.613 59.7222 178.731 62.2387 179.851 64.7608C190.056 87.7698 190.056 87.7698 190.027 100.598C190.026 101.082 190.025 101.567 190.024 102.066C190 107.128 189.829 112.178 189.557 117.233C189.532 117.705 189.507 118.177 189.481 118.664C188.952 128.109 187.747 137.367 185.664 146.608C185.567 147.035 185.471 147.462 185.372 147.902C183.645 155.386 181.154 162.373 178.104 169.418C177.407 171.033 176.728 172.654 176.05 174.278C173.84 179.488 171.732 184.337 167.776 188.496C167.241 189.068 166.707 189.639 166.157 190.229C160.397 194.733 151.283 195.04 144.336 194.656C134.294 193.332 125.424 189.51 116.579 184.8C116.148 184.571 115.716 184.342 115.271 184.106C106.055 179.176 98.5885 174.04 93.7184 164.511C93.4568 164.005 93.1952 163.499 92.9257 162.978C88.9039 155.007 85.5753 146.421 85.7383 137.368C87.001 139.521 87.3358 141.581 87.743 144.029C89.7344 154.668 95.2972 168.972 104.243 175.56C107.234 177.595 110.326 179.364 113.495 181.104C114.026 181.402 114.556 181.701 115.103 182.008C127.804 189.124 142.306 195.691 157.147 191.894C163.699 190.015 166.966 187.703 170.405 181.879C172.715 177.553 174.55 173.009 176.411 168.476C176.63 167.945 176.849 167.413 177.075 166.866C180.494 158.519 183.196 150.36 184.76 141.45C185.017 140.001 185.31 138.568 185.623 137.13C188.082 125.196 188.18 112.408 188.324 100.254C188.34 99.5147 188.34 99.5147 188.357 98.7603C188.347 90.5212 185.485 83.0456 182.425 75.537C182.083 74.6806 181.742 73.824 181.401 72.9671C179.498 68.2067 177.494 63.4962 175.421 58.8073C174.322 56.3191 173.272 53.8201 172.28 51.2879C168.664 42.0936 164.453 32.8216 155.083 28.4515C151.375 27.1667 147.622 26.7968 143.72 26.488C143.72 26.2847 143.72 26.0815 143.72 25.872Z" fill="#070E46"/>
<path d="M123.981 100.408C123.981 101.017 123.981 101.627 123.981 102.256C122.817 102.332 122.817 102.332 121.63 102.41C119.274 102.66 117.314 103.231 115.114 104.104C109.775 106.134 105.311 106.409 99.8625 104.65C98.6915 104.104 98.6915 104.104 98.0747 102.872C98.5792 103.005 98.5792 103.005 99.0939 103.141C99.5591 103.255 100.024 103.37 100.503 103.488C100.954 103.602 101.405 103.716 101.87 103.834C106.693 104.574 110.52 103.918 115.076 102.256C115.58 102.079 116.085 101.903 116.605 101.721C117.833 101.291 119.057 100.85 120.28 100.408C118.245 99.5945 116.209 98.7814 114.112 97.9436C113.909 98.96 113.705 99.9764 113.495 101.024C112.57 102.448 112.57 102.448 111.028 103.488C108.117 103.913 106.103 103.905 103.626 102.256C103.374 100.585 103.544 99.0255 103.626 97.3276C100.268 98.8522 100.268 98.8522 96.8411 100.408C98.3508 97.3923 99.2959 97.1963 102.392 96.0956C109.763 93.9072 117.728 96.3409 123.981 100.408ZM104.86 96.7116C104.172 99.1963 104.172 99.1963 104.86 101.563C106.764 102.632 108.273 102.484 110.411 102.256C111.7 101.586 111.7 101.586 112.262 100.408C112.121 99.0752 112.121 99.0752 111.645 97.9436C111.034 97.9436 110.423 97.9436 109.794 97.9436C109.794 99.1633 109.794 100.383 109.794 101.64C108.268 101.03 108.268 101.03 106.71 100.408C106.914 99.1879 107.117 97.9683 107.327 96.7116C106.513 96.7116 105.699 96.7116 104.86 96.7116ZM107.944 97.9436C107.944 98.5535 107.944 99.1633 107.944 99.7916C108.351 99.9949 108.758 100.198 109.178 100.408C108.77 99.5945 108.363 98.7814 107.944 97.9436Z" fill="#070E46"/>
<path d="M154.644 151.952C155.769 152.292 156.893 152.633 158.017 152.975C160.431 153.542 162.71 153.495 165.176 153.389C166.542 153.384 166.542 153.384 167.776 154C167.776 154.406 167.776 154.813 167.776 155.232C158.529 158.854 148.701 161.525 138.71 161.452C138.251 161.451 137.792 161.45 137.318 161.449C135.867 161.446 134.415 161.438 132.964 161.43C131.973 161.427 130.982 161.424 129.992 161.422C127.577 161.415 125.162 161.405 122.748 161.392C122.748 161.189 122.748 160.985 122.748 160.776C123.169 160.767 123.59 160.758 124.024 160.749C136.749 160.447 148.712 159.222 160.991 155.848C153.531 153.14 153.531 153.14 145.946 154.019C144.167 154.679 143.016 154.666 141.137 154.539C135.854 154.447 131.754 156.588 127.552 159.633C126.449 160.16 126.449 160.16 125.075 159.936C124.714 159.807 124.353 159.677 123.981 159.544C124.668 159.213 125.355 158.883 126.063 158.543C127.562 157.814 128.926 157.073 130.292 156.115C134.239 153.374 137.595 152.951 142.288 152.893C146.849 152.614 149.736 150.73 154.644 151.952Z" fill="#070E46"/>
<path d="M175.178 93.0161C173.423 93.7228 172.723 93.6363 170.894 93.0185C170.246 92.7255 169.599 92.4325 168.932 92.1306C166.588 90.968 166.588 90.968 164.075 90.5521C164.685 90.9586 165.296 91.3652 165.925 91.7841C166.118 93.9401 166.118 93.9401 165.925 96.0961C165.518 96.5026 165.111 96.9092 164.692 97.3281C166.619 97.0451 167.956 96.6183 169.703 95.7111C171.477 94.8641 171.477 94.8641 173.327 95.4801C168.592 99.0814 163.859 98.9303 158.176 98.7526C157.31 98.7371 156.444 98.7231 155.578 98.7105C153.475 98.6744 151.373 98.6239 149.271 98.5601C149.16 95.6275 149.16 95.6275 150.155 94.301C157.979 87.63 166.492 87.7648 175.178 93.0161ZM160.374 91.7841C159.763 92.6988 159.763 92.6988 159.14 93.6321C160.056 94.2419 160.056 94.2419 160.991 94.8641C161.398 94.4575 161.805 94.051 162.224 93.6321C161.614 93.0222 161.003 92.4124 160.374 91.7841ZM162.841 91.7841C162.841 92.8005 162.841 93.8169 162.841 94.8641C161.823 95.2706 160.806 95.6772 159.757 96.0961C159.757 96.2994 159.757 96.5026 159.757 96.7121C161.53 96.9692 161.53 96.9692 163.458 96.7121C164.652 95.2395 164.652 95.2395 165.308 93.6321C164.705 93.0031 164.087 92.3874 163.458 91.7841C163.254 91.7841 163.051 91.7841 162.841 91.7841ZM151.738 94.8641C151.331 95.6772 150.924 96.4903 150.505 97.3281C153.354 97.3281 156.204 97.3281 159.14 97.3281C158.53 96.7182 157.919 96.1084 157.29 95.4801C156.866 93.8246 156.866 93.8246 156.673 92.4001C154.596 92.4001 153.354 93.6539 151.738 94.8641ZM157.29 92.4001C157.907 94.2481 157.907 94.2481 157.907 94.2481L157.29 92.4001ZM157.907 94.2481C158.523 95.4801 158.523 95.4801 158.523 95.4801L157.907 94.2481Z" fill="#070E46"/>
<path d="M181.963 80.08C183.383 81.4555 184.487 82.7931 185.664 84.392C185.256 84.5953 184.849 84.7985 184.43 85.008C183.362 84.5426 182.297 84.07 181.251 83.5593C174.266 80.1543 167.329 78.9288 159.757 81.312C157.679 82.0914 155.622 82.9007 153.577 83.7615C151.769 84.3814 150.543 84.6225 148.654 84.392C147.421 83.16 147.421 83.16 147.189 81.389C147.478 78.988 148.011 78.4806 149.888 77C151.736 76.5115 151.736 76.5115 153.859 76.2685C154.627 76.1795 155.395 76.0906 156.186 75.999C156.957 75.9227 157.729 75.8465 158.523 75.768C159.206 75.6917 159.888 75.6155 160.591 75.537C168.792 74.7398 175.192 74.9357 181.963 80.08ZM156.634 76.923C156.128 76.9712 155.621 77.0194 155.099 77.069C154.619 77.1209 154.139 77.1727 153.644 77.2262C153.217 77.2713 152.79 77.3165 152.35 77.363C150.928 77.6558 149.88 78.0671 148.654 78.848C148.041 80.6714 148.041 80.6714 148.037 82.544C148.444 82.9505 148.852 83.3571 149.271 83.776C152.741 83.5855 155.975 82.1443 159.053 80.6358C162.132 79.3397 165.249 79.3456 168.547 79.3485C169.243 79.3479 169.243 79.3479 169.954 79.3473C173.291 79.3789 176.277 79.7611 179.495 80.696C175.315 76.791 170.757 76.1041 165.2 76.242C162.338 76.4142 159.488 76.6447 156.634 76.923Z" fill="#070E46"/>
<path d="M144.953 93.6318C145.157 93.6318 145.36 93.6318 145.57 93.6318C145.556 94.0813 145.541 94.5307 145.527 94.9938C145.338 105.919 145.655 120.389 153.341 128.838C154.341 130.154 154.568 130.955 154.668 132.594C154.122 135.319 153.265 136.271 151.121 137.984C151.312 137.666 151.503 137.349 151.7 137.021C152.645 134.856 153.05 133.616 152.972 131.208C152.003 129.913 152.003 129.913 150.736 128.59C144.679 121.714 144.226 110.48 144.259 101.755C144.257 101.109 144.255 100.463 144.252 99.7979C144.253 99.1821 144.254 98.5663 144.254 97.9318C144.255 97.3721 144.256 96.8125 144.257 96.2358C144.336 94.8638 144.336 94.8638 144.953 93.6318Z" fill="#070E46"/>
<path d="M159.14 159.544C159.547 159.747 159.954 159.951 160.374 160.16C156.833 164.095 153.967 167.154 148.654 168.168C148.164 168.278 147.673 168.389 147.168 168.502C138.922 169.956 132.032 167.803 125.215 163.24C127.065 162.624 127.065 162.624 128.4 163.194C129.152 163.617 129.152 163.617 129.918 164.048C136.562 167.51 143.312 167.742 150.517 165.824C153.901 164.469 156.581 162.1 159.14 159.544Z" fill="#070E46"/>
<path d="M120.897 94.864C122.516 96.558 122.516 96.558 123.364 97.944C121.651 97.2898 120.027 96.583 118.391 95.7495C112.347 92.7955 105.483 94.1576 99.3084 96.096C98.6977 96.4009 98.6977 96.4009 98.0747 96.712C98.6915 94.864 98.6915 94.864 99.7445 94.301C100.387 94.0842 100.387 94.0842 101.043 93.863C101.679 93.6415 101.679 93.6415 102.327 93.4155C108.448 91.5331 115.303 91.4484 120.897 94.864Z" fill="#070E46"/>
<path d="M170.86 88.0881C171.987 89.0771 171.987 89.0771 172.71 89.9361C172.151 89.7956 171.592 89.655 171.016 89.5102C164.86 88.0594 160.318 87.3962 154.656 90.4775C153.281 91.367 152.186 92.3922 151.121 93.6321C150.714 93.4289 150.307 93.2256 149.888 93.0161C154.793 85.562 163.195 85.1263 170.86 88.0881Z" fill="#070E46"/>
<path d="M146.804 134.904C147.414 135.107 148.025 135.31 148.654 135.52C148.273 135.66 147.891 135.799 147.498 135.943C146.047 136.659 146.047 136.659 145.57 138.292C144.953 139.832 144.953 139.832 143.951 140.679C141.72 141.265 139.712 141.199 137.551 140.448C136.241 139.323 135.468 138.192 134.467 136.752C134.06 136.345 133.653 135.939 133.234 135.52C134.986 135.77 135.622 136.051 136.857 137.368C138.514 138.925 139.628 139.073 141.869 139.216C143.808 138.57 144.171 138.243 145.377 136.713C145.848 136.116 146.319 135.519 146.804 134.904Z" fill="#070E46"/>
<path d="M129.533 126.28C130.244 128.41 130.048 128.691 129.224 130.669C128.1 133.762 128.354 136.001 128.916 139.216C129.527 139.419 130.137 139.622 130.766 139.832C130.156 140.035 129.545 140.238 128.916 140.448C127.025 138.724 126.532 137.434 126.217 134.865C126.532 131.567 127.922 129.135 129.533 126.28Z" fill="#070E46"/>
</g>
<defs>
<clipPath id="clip0_72_30">
<rect width="264" height="308" fill="white"/>
</clipPath>
</defs>
</svg>
